<?xml version="1.0" encoding="utf-8"?>
<!-- Generator: Adobe Illustrator 16.0.0, SVG Export Plug-In . SVG Version: 6.00 Build 0)  -->
<!DOCTYPE svg PUBLIC "-//W3C//DTD SVG 1.1//EN" "http://www.w3.org/Graphics/SVG/1.1/DTD/svg11.dtd">
<svg width="20" height="65.6" xmlns="http://www.w3.org/2000/svg">
 <g>
  <title>Layer 1</title>
  <path id="svg_9" d="m13.874001,55.580002c-1.466003,0 -2.904999,-0.689003 -3.812996,-1.978996c-0.331,-0.469002 -8.029004,-11.541008 -7.293003,-22.220001c0.056999,-9.559006 4.631001,-17.973 4.827,-18.328002c1.240996,-2.256996 4.074997,-3.080003 6.335999,-1.835999c2.252997,1.243004 3.076005,4.073997 1.841002,6.329002c-0.084999,0.157997 -3.674004,6.881996 -3.674004,14.011002l-0.014998,0.363997c-0.477997,6.112001 3.888,13.85 5.610002,16.316996c1.474997,2.108002 0.962996,5.018005 -1.143,6.493004c-0.816002,0.572998 -1.750998,0.848999 -2.676003,0.848999" fill="#36C5F3"/>
 </g>
</svg>
